<?xml version="1.0" encoding="UTF-8" standalone="no"?>
<svg
   xmlns:dc="http://purl.org/dc/elements/1.1/"
   xmlns:cc="http://creativecommons.org/ns#"
   xmlns:rdf="http://www.w3.org/1999/02/22-rdf-syntax-ns#"
   xmlns:svg="http://www.w3.org/2000/svg"
   xmlns="http://www.w3.org/2000/svg"
   xmlns:sodipodi="http://sodipodi.sourceforge.net/DTD/sodipodi-0.dtd"
   xmlns:inkscape="http://www.inkscape.org/namespaces/inkscape"
   width="24px"
   height="24px"
   viewBox="0 0 24 24"
   version="1.1"
   id="svg191"
   sodipodi:docname="my-location-hover.svg"
   inkscape:version="0.92.4 (f8dce91, 2019-08-02)">
  <metadata
     id="metadata197">
    <rdf:RDF>
      <cc:Work
         rdf:about="">
        <dc:format>image/svg+xml</dc:format>
        <dc:type
           rdf:resource="http://purl.org/dc/dcmitype/StillImage" />
      </cc:Work>
    </rdf:RDF>
  </metadata>
  <defs
     id="defs195" />
  <sodipodi:namedview
     pagecolor="#ffffff"
     bordercolor="#666666"
     borderopacity="1"
     objecttolerance="10"
     gridtolerance="10"
     guidetolerance="10"
     inkscape:pageopacity="0"
     inkscape:pageshadow="2"
     inkscape:window-width="1920"
     inkscape:window-height="1052"
     id="namedview193"
     showgrid="false"
     inkscape:zoom="9.8333333"
     inkscape:cx="11.898305"
     inkscape:cy="12"
     inkscape:window-x="1920"
     inkscape:window-y="0"
     inkscape:window-maximized="1"
     inkscape:current-layer="svg191" />
  <!-- Generator: Sketch 61 (89581) - https://sketch.com -->
  <title
     id="title185">my-location</title>
  <desc
     id="desc187">Created with Sketch.</desc>
  <g
     id="my-location"
     stroke="none"
     stroke-width="1"
     fill="none"
     fill-rule="evenodd"
     style="fill:#55ddff">
    <path
       d="M12,2 C12.5522847,2 13,2.44771525 13,3 L12.9999513,4.06188768 C16.6187078,4.5131177 19.4868823,7.38129217 19.9381123,11.0000487 L21,11 C21.5522847,11 22,11.4477153 22,12 C22,12.5522847 21.5522847,13 21,13 L19.9379871,13.0009551 C19.4863519,16.6192382 16.6183732,19.486924 12.9999513,19.9381123 L13,21 C13,21.5522847 12.5522847,22 12,22 C11.4477153,22 11,21.5522847 11,21 L10.9990449,19.9379871 C7.38109637,19.4863937 4.51360635,16.6189036 4.06201291,13.0009551 L3,13 C2.44771525,13 2,12.5522847 2,12 C2,11.4477153 2.44771525,11 3,11 L4.06188768,11.0000487 C4.51307598,7.38162677 7.38076178,4.51364811 10.9990449,4.06201291 L11,3 C11,2.44771525 11.4477153,2 12,2 Z M12.9958144,6.08225776 L13,6 C13,6.55228475 12.5522847,7 12,7 C11.4760375,7 11.0461945,6.59702684 11.003486,6.0840956 C8.48830234,6.50250804 6.50250804,8.48830234 6.08225776,11.0041856 L6,11 C6.55228475,11 7,11.4477153 7,12 C7,12.5240584 6.59687929,12.9539629 6.08381389,12.9965374 C6.50250804,15.5116977 8.48830234,17.497492 11.0041856,17.9177422 L11,18 C11,17.4477153 11.4477153,17 12,17 C12.5239625,17 12.9538055,17.4029732 12.996514,17.9159044 C15.5116977,17.497492 17.497492,15.5116977 17.9177422,12.9958144 L18,13 C17.4477153,13 17,12.5522847 17,12 C17,11.4760375 17.4029732,11.0461945 17.9159044,11.003486 C17.497492,8.48830234 15.5116977,6.50250804 12.9958144,6.08225776 Z M12,10 C13.1045695,10 14,10.8954305 14,12 C14,13.1045695 13.1045695,14 12,14 C10.8954305,14 10,13.1045695 10,12 C10,10.8954305 10.8954305,10 12,10 Z"
       id="Combined-Shape"
       fill="#000000"
       fill-rule="nonzero"
       style="fill:#55ddff" />
  </g>
</svg>
