<svg xmlns="http://www.w3.org/2000/svg" width="16" height="16" viewBox="0 0 16 16">
  <g fill="#7A7E80" fill-rule="evenodd">
    <g transform="translate(1 4)">
      <path fill="#7A7E80" fill-rule="nonzero" d="M10,0.25 C10.9181734,0.25 11.6711923,0.957110273 11.7441988,1.85647279 L11.75,2 L11.75,2.25 L12.5,2.25 C12.8796958,2.25 13.193491,2.53215388 13.2431534,2.89822944 L13.25,3 L13.25,6 C13.25,6.37969577 12.9678461,6.69349096 12.6017706,6.74315338 L12.5,6.75 L11.75,6.75 L11.75,7 C11.75,7.9181734 11.0428897,8.67119234 10.1435272,8.7441988 L10,8.75 L2,8.75 C1.0818266,8.75 0.32880766,8.04288973 0.2558012,7.14352721 L0.25,7 L0.25,2 C0.25,1.0818266 0.957110273,0.32880766 1.85647279,0.2558012 L2,0.25 L10,0.25 Z M10,1.75 L2,1.75 C1.88165327,1.75 1.78251318,1.83223341 1.75660268,1.94267729 L1.75,2 L1.75,7 C1.75,7.11834673 1.83223341,7.21748682 1.94267729,7.24339732 L2,7.25 L10,7.25 C10.1183467,7.25 10.2174868,7.16776659 10.2433973,7.05732271 L10.25,7 L10.25,6.75 L10.25,6.75 L10.249,5.649 L11.75,5.65 L11.75,3.4 L10.249,3.399 L10.25,2.25 L10.25,2.25 L10.25,2 C10.25,1.88165327 10.1677666,1.78251318 10.0573227,1.75660268 L10,1.75 Z"/>
      <rect width="3" height="4" x="2.5" y="2.5" fill="#2A3642" rx=".75" transform="matrix(-1 0 0 1 8 0)"/>
    </g>
  </g>
</svg>
