<svg xmlns="http://www.w3.org/2000/svg" width="30" height="30" viewBox="0 0 30 30"><path d="M18.54 6.61h-.856a2.38 2.38 0 0 1-.888-.21L13.59 4.798c-.926-.463-2.27-.245-3.003.487l-5.303 5.303c-.732.732-.95 2.078-.488 3.003L6.4 16.8c.115.23.21.63.21.888v.857c0 .732.593 1.92 1.325 2.65l3.315 3.316.663.666a.937.937 0 0 0 1.326 0l1.32-1.323a.937.937 0 0 0 0-1.327l-.664-.664 7.955-7.955.664.665a.937.937 0 0 0 1.324 0l1.325-1.326a.937.937 0 0 0 0-1.327l-3.976-3.98c-.733-.73-1.92-1.326-2.653-1.325zm-7.62 14.252a1.407 1.407 0 1 1-1.99-1.99 1.407 1.407 0 0 1 1.99 1.99zm7.955-6.63l-4.64 4.64a.47.47 0 0 1-.664-.662l4.64-4.64a.47.47 0 0 1 .67.663zM7.64 16.187c-.183.183-.426.143-.54-.088l-1.466-2.93c-.282-.56-.133-1.48.31-1.92l5.304-5.308c.444-.444 1.36-.594 1.92-.31L16.095 7.1c.23.114.272.356.088.54L7.64 16.186zm13.22-5.268a1.407 1.407 0 1 1-1.987-1.99 1.407 1.407 0 0 1 1.988 1.99z"/></svg>