<svg xmlns="http://www.w3.org/2000/svg" width="16" height="16" viewBox="0 0 16 16">
  <g fill="#7A7E80" fill-rule="evenodd">
    <path fill="#7A7E80" fill-rule="nonzero" d="M11,4.25 C11.9181734,4.25 12.6711923,4.95711027 12.7441988,5.85647279 L12.75,6 L12.75,6.25 L13.5,6.25 C13.8796958,6.25 14.193491,6.53215388 14.2431534,6.89822944 L14.25,7 L14.25,10 C14.25,10.3796958 13.9678461,10.693491 13.6017706,10.7431534 L13.5,10.75 L12.75,10.75 L12.75,11 C12.75,11.9181734 12.0428897,12.6711923 11.1435272,12.7441988 L11,12.75 L3,12.75 C2.0818266,12.75 1.32880766,12.0428897 1.2558012,11.1435272 L1.25,11 L1.25,6 C1.25,5.0818266 1.95711027,4.32880766 2.85647279,4.2558012 L3,4.25 L11,4.25 Z M11,5.75 L3,5.75 C2.88165327,5.75 2.78251318,5.83223341 2.75660268,5.94267729 L2.75,6 L2.75,11 C2.75,11.1183467 2.83223341,11.2174868 2.94267729,11.2433973 L3,11.25 L11,11.25 C11.1183467,11.25 11.2174868,11.1677666 11.2433973,11.0573227 L11.25,11 L11.25,10.75 L11.25,10.75 L11.249,9.649 L12.75,9.65 L12.75,7.4 L11.249,7.399 L11.25,6.25 L11.25,6.25 L11.25,6 C11.25,5.88165327 11.1677666,5.78251318 11.0573227,5.75660268 L11,5.75 Z"/>
    <path fill="#7A7E80" d="M8.76308579,6.5 L9,6.5 C9.27614237,6.5 9.5,6.72385763 9.5,7 L9.5,9.75 C9.5,10.1642136 9.16421356,10.5 8.75,10.5 L5.63808579,10.5 C5.22387223,10.5 4.88808579,10.1642136 4.88808579,9.75 C4.88808579,9.52216221 4.99165308,9.30667753 5.16956451,9.16434839 L8.29456451,6.66434839 C8.42754929,6.55796056 8.59278217,6.5 8.76308579,6.5 Z" transform="matrix(-1 0 0 1 13 0)"/>
  </g>
</svg>
