<svg xmlns="http://www.w3.org/2000/svg" width="16" height="16" viewBox="0 0 16 16">
  <g fill="#7A7E80" fill-rule="evenodd">
    <path fill="#7A7E80" fill-rule="nonzero" d="M8.35,1.33333333 C5.9,1.33333333 3.73,2.66666667 2.61,4.70175439 L1,3.0877193 L1,7.64912281 L5.55,7.64912281 L3.59,5.68421053 C4.5,3.92982456 6.25,2.73684211 8.35,2.73684211 C11.22,2.73684211 13.6,5.12280702 13.6,8 C13.6,10.877193 11.22,13.2631579 8.35,13.2631579 C6.04,13.2631579 4.15,11.7894737 3.38,9.75438596 L1.91,9.75438596 C2.68,12.5614035 5.27,14.6666667 8.35,14.6666667 C12.06,14.6666667 15,11.6491228 15,8 C15,4.35087719 11.99,1.33333333 8.35,1.33333333 Z" transform="matrix(-1 0 0 1 16 0)"/>
    <path fill="#7A7E80" fill-rule="nonzero" d="M9.47199405,7.1830776 L7.40390738,10.4934431 C7.35434587,10.5727757 7.24985655,10.59691 7.17052394,10.5473485 C7.12098689,10.5164012 7.09089119,10.4621135 7.09089119,10.4037041 C7.09089119,10.4037041 7.09089119,10.4037041 7.09089119,10.4037041 L7.09089119,8.70604578 L6.18178053,8.70604578 C6.07288612,8.70604578 5.97166233,8.64037782 5.91779753,8.53396581 C5.86452932,8.42752197 5.86572253,8.29688635 5.92194534,8.19177942 L7.79899313,4.89506745 C7.84548682,4.81340927 7.94937443,4.78490282 8.03103261,4.83139651 C8.07844722,4.85839295 8.11003839,4.90649106 8.11597857,4.96072819 L8.3030482,6.66877941 L8.3030482,6.66877941 L9.21215886,6.66877941 C9.32105327,6.66877941 9.42227706,6.73444737 9.47614187,6.84085938 C9.52941007,6.94730322 9.52821686,7.07797067 9.47199405,7.1830776 Z"/>
  </g>
</svg>
