<svg xmlns="http://www.w3.org/2000/svg" width="32" height="32" viewBox="0 0 32 32">
  <path fill="#FFF" fill-rule="evenodd" d="M12.9999,9 L22.9999,19 L20.2849,21.698 C19.9539,22.011 19.5309,22.362 19.1749,22.586 C16.8319,24.076 13.8389,23.689 11.8439,23.156 L11.8439,23.156 L8.9999,26 L5.9999,23 L8.8879,20.112 C8.3679,18.125 8.0229,15.222 9.4809,12.932 C9.7079,12.567 10.0689,12.135 10.3889,11.803 L10.3889,11.803 L10.3849,11.799 L12.9999,9 Z M25.597,11.438 C26.182,12.023 26.182,12.975 25.596,13.56 L23,16 C22.296,15.296 21.98525,14.9129861 21.2204699,14.1353918 L21.0429,13.9555 L23.475,11.438 C24.06,10.854 25.011,10.854 25.597,11.438 Z M20.475,6.404 C21.06,6.989 21.06,7.94 20.475,8.525 L18,11 L17.7982554,10.7985041 L17.7982554,10.7985041 L17.4310458,10.4316612 C16.9633554,9.96435537 16.5558182,9.55681818 15.878,8.879 L16,9 L18.352,6.404 C18.938,5.818 19.89,5.818 20.475,6.404 Z"/>
</svg>
