<svg xmlns="http://www.w3.org/2000/svg" width="16" height="16" viewBox="0 0 16 16">
  <defs>
    <filter id="speed_slow-a">
      <feColorMatrix in="SourceGraphic" values="0 0 0 0 0.478431 0 0 0 0 0.494118 0 0 0 0 0.501961 0 0 0 1.000000 0"/>
    </filter>
  </defs>
  <g fill="none" fill-rule="evenodd" filter="url(#speed_slow-a)">
    <path fill="#FFF" d="M5.27003572,4.01218339 L2.25789623,9.79798503 C2.19300331,9.92263316 2.03934992,9.97107433 1.91470179,9.90618141 C1.83054251,9.86236735 1.77775152,9.77536727 1.77775152,9.680486 C1.77775152,9.680486 1.77775152,9.680486 1.77775152,9.680486 L1.77775152,6.69260738 L0.444389228,6.69260738 C0.284677425,6.69260738 0.136215867,6.57703178 0.0572141508,6.38974664 C-0.0209125462,6.20240548 -0.0191625082,5.97248678 0.0632976163,5.78749859 L2.72811088,0.171154544 C2.79900477,0.0217390141 2.97760085,-0.0419153505 3.12701638,0.0289785409 C3.22266316,0.0743605238 3.287239,0.166873268 3.29686134,0.272302121 L3.55558181,3.10701858 L3.55558181,3.10701858 L4.88894411,3.10701858 C5.04865591,3.10701858 5.19711747,3.22259419 5.27611918,3.40987932 C5.35424588,3.59722048 5.35249584,3.8271952 5.27003572,4.01218339 Z" transform="translate(5.667 2.667)"/>
  </g>
</svg>
