<svg xmlns="http://www.w3.org/2000/svg" width="32" height="32" viewBox="0 0 32 32">
  <path fill-rule="evenodd" d="M20.648628,7 C21.4643656,7 22.1983559,7.4954166 22.5034637,8.25194614 L23.947,11.832 L23.9471154,11.5 C23.9471154,11.2545401 24.1239906,11.0503916 24.3572398,11.0080557 L24.4471154,11 L26.0898692,11 C26.383992,11 26.6608973,11.1292989 26.8494932,11.3496187 L26.9247061,11.4495025 L27.2877081,12 C27.3571933,12.1053752 27.3942308,12.2288233 27.3942308,12.3550457 C27.3942308,12.6788625 27.1555896,12.9469416 26.8445832,12.993007 L26.7492765,13 L24.9471154,13 C24.7156818,13 24.5026107,12.9213808 24.3331525,12.7893928 L24.3542492,12.8410581 C24.4558424,13.0929633 24.6076823,13.3215348 24.8005093,13.5128334 L25.355691,14.0636148 C25.734211,14.4391347 25.9471154,14.950253 25.9471154,15.4834439 L25.9471154,23.5 C25.9471154,24.3284271 25.2755425,25 24.4471154,25 C23.6186883,25 22.9471154,24.3284271 22.9471154,23.5 L22.9471154,22.6796698 C20.7523751,22.8932233 18.4865632,23 16.1496798,23 C13.8127964,23 11.4119416,22.8932233 8.94711541,22.6796698 L8.94711541,23.5 C8.94711541,24.3284271 8.27554254,25 7.44711541,25 C6.61868829,25 5.94711541,24.3284271 5.94711541,23.5 L5.94711541,15.4834439 C5.94711541,14.950253 6.16001977,14.4391347 6.53853981,14.0636148 L7.06908703,13.5372727 C7.2775347,13.3304772 7.43788893,13.0803241 7.53876597,12.8045824 C7.37434195,12.9276162 7.16918175,13 6.94711541,13 L5.14495429,13 C4.78875587,13 4.5,12.7112441 4.5,12.3550457 C4.5,12.2288233 4.53703756,12.1053752 4.6065227,12 L4.96952475,11.4495025 C5.15456915,11.1688802 5.46822127,11 5.80436158,11 L7.44711541,11 C7.72325779,11 7.94711541,11.2238576 7.94711541,11.5 L7.947,11.685 L9.17888717,8.31387747 C9.46705336,7.52486897 10.2175286,7 11.0575132,7 L20.648628,7 Z M18.4471154,19 L13.4471154,19 C13.2016555,19 12.997507,19.1768752 12.9551711,19.4101244 L12.9471154,19.5 L12.9471154,20 C12.9471154,20.2454599 13.1239906,20.4496084 13.3572398,20.4919443 L13.4471154,20.5 L18.4471154,20.5 C18.6925753,20.5 18.8967238,20.3231248 18.9390597,20.0898756 L18.9471154,20 L18.9471154,19.5 C18.9471154,19.2238576 18.7232578,19 18.4471154,19 Z M19.7180604,14.8036424 L17.0365516,14.8525074 C16.8396105,14.8560962 16.6501988,14.9288053 16.5014426,15.0579187 C16.3559237,15.1842222 16.275801,15.3698907 16.2837344,15.5624144 L16.3018734,16.0026013 C16.3188993,16.4157793 16.6643839,16.7388122 17.0777732,16.7280785 L18.9409104,16.6797019 C19.4646705,16.6661025 19.9368963,16.36089 20.1644025,15.8889255 L20.401263,15.3975556 C20.4663225,15.2625888 20.4347678,15.1041879 20.3306042,15.0041084 L20.2593299,14.9511741 C20.0966799,14.8513574 19.9088647,14.8001654 19.7180604,14.8036424 Z M12.2639681,14.8036424 C12.1113246,14.8008608 11.9605942,14.8330674 11.823131,14.8971674 L11.7226986,14.9511741 L11.6514243,15.0041084 C11.5646213,15.087508 11.5282411,15.2114085 11.5561758,15.3284978 L11.5807655,15.3975556 L11.817626,15.8889255 C12.0244498,16.3179841 12.4335213,16.6092312 12.8996973,16.6688567 L13.0411181,16.6797019 L14.9042553,16.7280785 C15.2831955,16.7379177 15.6050768,16.4673003 15.6692065,16.1038768 L15.6801551,16.0026013 L15.6982941,15.5624144 C15.7062275,15.3698907 15.6261048,15.1842222 15.4805859,15.0579187 C15.3615809,14.954628 15.2165565,14.887436 15.062473,14.8628534 L14.9454769,14.8525074 L12.2639681,14.8036424 Z M24.1474045,14.5431639 C24.0886782,14.5431639 24.0304111,14.5535096 23.9752745,14.5737268 C23.6875911,14.6792128 23.3819732,14.7750836 23.0584209,14.8613394 C22.5583479,14.9946539 22.0524789,15.0951238 21.5408141,15.1627493 C21.4313411,15.1772651 21.3543206,15.2777454 21.3687902,15.3872245 C21.371527,15.4079317 21.3774914,15.4280821 21.3864664,15.4469427 L21.6123404,15.92161 C21.8145447,16.3465361 22.2832052,16.5757462 22.7427615,16.4744708 L23.862617,16.2276809 C24.3209763,16.1266693 24.6474045,15.7204714 24.6474045,15.2511137 L24.6474045,15.0431639 C24.6474045,14.767021 24.4235462,14.5431639 24.1474045,14.5431639 Z M7.76693449,14.5431639 C7.52147513,14.5431639 7.31732709,14.7200387 7.27499046,14.9532874 L7.26693449,15.0431639 L7.26693449,15.2511137 C7.26693449,15.6813583 7.54122479,16.058531 7.93999328,16.19621 L8.05172201,16.2276809 L9.17157742,16.4744708 C9.59283743,16.5673066 10.0217474,16.3824427 10.2460558,16.0236861 L10.3019986,15.92161 L10.5278726,15.4469427 C10.5368476,15.4280821 10.542812,15.4079317 10.5455488,15.3872245 C10.5600184,15.2777454 10.4829979,15.1772651 10.3735248,15.1627493 C9.86186003,15.0951238 9.35599111,14.9946539 8.85591806,14.8613394 C8.53236571,14.7750836 8.22674783,14.6792128 7.93906441,14.5737268 C7.88392785,14.5535096 7.82566075,14.5431639 7.76693449,14.5431639 Z M19.7271704,15.3035594 C19.7589711,15.3029799 19.7906058,15.3054375 19.8216637,15.3108204 L19.880181,15.326 L19.7140003,15.6718131 C19.5840732,15.9413485 19.3299171,16.1262342 19.0387039,16.1701289 L18.9279322,16.1798704 L17.064795,16.228247 C16.9445318,16.2313696 16.8412013,16.1512642 16.8104935,16.0400017 L16.8014494,15.9820151 L16.7833104,15.5418282 C16.7816387,15.5012603 16.7985219,15.462137 16.829185,15.4355228 C16.8693043,15.4007012 16.9167333,15.376021 16.9675014,15.3630065 L17.0456616,15.3524244 L19.7271704,15.3035594 Z M12.2548581,15.3035594 L14.9363669,15.3524244 L15.0145271,15.3630065 C15.0652952,15.376021 15.1127242,15.4007012 15.1528435,15.4355228 C15.1732856,15.4532656 15.1876032,15.476568 15.1943817,15.5021516 L15.1987181,15.5418282 L15.1805791,15.9820151 L15.171535,16.0400017 C15.1469688,16.1290117 15.075924,16.1980812 14.986914,16.2205497 L14.9172335,16.228247 L13.0540963,16.1798704 L12.9433246,16.1701289 C12.688513,16.1317211 12.4620734,15.9853669 12.3224039,15.7688109 L12.2680282,15.6718131 L12.1011154,15.326 L12.1603648,15.3108204 L12.2073329,15.304954 L12.2073329,15.304954 L12.2548581,15.3035594 Z M20.2812182,8.41077995 L11.6130126,8.41077995 C11.2500309,8.41077995 10.9190253,8.60702478 10.743082,8.91755172 L10.6903461,9.02518094 L9.73664886,11.3072005 C9.71112514,11.368274 9.69798209,11.4338076 9.69798209,11.5 C9.69798209,11.7454599 9.87485725,11.9496084 10.1081065,11.9919443 L10.1979821,12 L21.6962487,12 C21.7624411,12 21.8279747,11.986857 21.8890482,11.9613332 C22.1155258,11.8666841 22.2356839,11.6247679 22.1848052,11.393232 L22.157582,11.3072005 L21.2038847,9.02518094 C21.0483676,8.65305752 20.6845313,8.41077995 20.2812182,8.41077995 Z"/>
</svg>
