<?xml version="1.0" encoding="UTF-8" standalone="no"?>
<svg
   xmlns:dc="http://purl.org/dc/elements/1.1/"
   xmlns:cc="http://creativecommons.org/ns#"
   xmlns:rdf="http://www.w3.org/1999/02/22-rdf-syntax-ns#"
   xmlns:svg="http://www.w3.org/2000/svg"
   xmlns="http://www.w3.org/2000/svg"
   xmlns:sodipodi="http://sodipodi.sourceforge.net/DTD/sodipodi-0.dtd"
   xmlns:inkscape="http://www.inkscape.org/namespaces/inkscape"
   width="32"
   height="32"
   viewBox="0 0 32 32"
   version="1.1"
   id="svg4"
   sodipodi:docname="tesla_white.svg"
   inkscape:version="1.0.1 (0767f8302a, 2020-10-17)">
  <metadata
     id="metadata10">
    <rdf:RDF>
      <cc:Work
         rdf:about="">
        <dc:format>image/svg+xml</dc:format>
        <dc:type
           rdf:resource="http://purl.org/dc/dcmitype/StillImage" />
      </cc:Work>
    </rdf:RDF>
  </metadata>
  <defs
     id="defs8" />
  <sodipodi:namedview
     pagecolor="#ffffff"
     bordercolor="#666666"
     borderopacity="1"
     objecttolerance="10"
     gridtolerance="10"
     guidetolerance="10"
     inkscape:pageopacity="0"
     inkscape:pageshadow="2"
     inkscape:window-width="1853"
     inkscape:window-height="1025"
     id="namedview6"
     showgrid="false"
     inkscape:zoom="27.4375"
     inkscape:cx="16"
     inkscape:cy="16"
     inkscape:window-x="67"
     inkscape:window-y="27"
     inkscape:window-maximized="1"
     inkscape:current-layer="svg4" />
  <path
     fill-rule="evenodd"
     d="M20.9684913,9.10749584 C22.155448,9.17815246 23.1886608,9.94316152 23.6025941,11.0578444 L24.0311999,12.212039 C24.0891185,12.3289295 24.1533139,12.4422011 24.2234011,12.5514035 L24.3966665,12.2880779 C24.5817108,12.0074556 24.895363,11.8385754 25.2315033,11.8385754 L26.5588235,11.8385754 C26.8349659,11.8385754 27.0588235,12.062433 27.0588235,12.3385754 L27.0588235,12.7209284 C27.0588235,13.2082384 26.6637807,13.6032813 26.1764706,13.6032813 L25.263,13.6024487 L25.7389832,13.9397826 C26.3423573,14.3671891 26.7394612,15.0274824 26.8341585,15.7608098 L27.0079608,17.1067191 C27.0418343,17.3690323 27.0588235,17.6332505 27.0588235,17.8977419 L27.0588235,22.4268107 C27.0588235,22.9141208 26.6637807,23.3091637 26.1764706,23.3091637 L24.615788,23.3091637 C24.1284779,23.3091637 23.7334351,22.9141208 23.7334351,22.4268107 L23.7334351,22.0721279 C21.1654273,22.3085831 18.5974195,22.4268107 16.0294118,22.4268107 C13.461404,22.4268107 10.8933962,22.3085831 8.32538847,22.0721279 L8.32538847,22.4268107 C8.32538847,22.8793129 7.98476477,23.2522582 7.54593652,23.3032274 L7.44303553,23.3091637 L5.88235294,23.3091637 C5.42985073,23.3091637 5.05690545,22.96854 5.00593623,22.5297117 L5,22.4268107 L5,17.8977419 C5,17.7214143 5.00755076,17.5452082 5.02262119,17.3696069 L5.05086271,17.1067191 L5.22466503,15.7608098 C5.31147091,15.088593 5.65238227,14.4777452 6.17334973,14.0513935 L6.31984033,13.9397826 L6.795,13.6024487 L5.88235294,13.6032813 C5.43252826,13.6032813 5.06132179,13.2666767 5.00687478,12.8316088 L5,12.7209284 L5,12.3385754 C5,12.0931155 5.17687516,11.888967 5.41012437,11.8466311 L5.5,11.8385754 L6.82732026,11.8385754 C7.12144303,11.8385754 7.39834827,11.9678743 7.58694421,12.1881941 L7.66215708,12.2880779 L7.83605556,12.5504166 L7.92443594,12.4050128 L7.92443594,12.4050128 L8.02762365,12.212039 L8.45623346,11.0578335 C8.87017325,9.94315008 9.90338872,9.17813941 11.090349,9.10749485 L11.635728,9.07882955 L11.635728,9.07882955 L12.5539224,9.04410045 L12.5539224,9.04410045 L13.5922678,9.01929395 L13.5922678,9.01929395 L14.7507642,9.00441004 L14.7507642,9.00441004 L15.5898458,9 L15.5898458,9 L16.8951974,9.00165379 L16.8951974,9.00165379 L18.0937491,9.01323026 L18.0937491,9.01323026 L19.1721487,9.03472943 L19.1721487,9.03472943 L19.8243305,9.05457481 L19.8243305,9.05457481 L20.4231114,9.07883029 L20.4231114,9.07883029 L20.9684913,9.10749584 L20.9684913,9.10749584 Z M19.1176471,19.2171256 L13.1176471,19.2171256 C12.8721872,19.2171256 12.6680387,19.3940008 12.6257027,19.62725 L12.6176471,19.7171256 L12.6176471,20.0406551 C12.6176471,20.2861149 12.7945222,20.4902634 13.0277714,20.5325994 L13.1176471,20.5406551 L19.1176471,20.5406551 C19.3631069,20.5406551 19.5672554,20.3637799 19.6095914,20.1305307 L19.6176471,20.0406551 L19.6176471,19.7171256 C19.6176471,19.4409833 19.3937894,19.2171256 19.1176471,19.2171256 Z M18.5879243,16.3371256 L13.4120757,16.3371256 C13.2070006,16.3371256 13.0026476,16.3581531 12.8022058,16.3997699 L12.6031859,16.4482336 L11,16.8971256 L15.396,16.8961256 L16,17.4242324 L16.603,16.8961256 L21,16.8971256 L19.3968141,16.4482336 C19.1993342,16.3929392 18.9968799,16.3580882 18.7926406,16.3441186 L18.5879243,16.3371256 Z M6.56648789,14.7252489 C6.45925921,14.7170152 6.36472726,14.7950776 6.3525328,14.9019283 L6.32851046,15.167955 C6.31443365,15.4023739 6.33019343,15.541969 6.37578982,15.5867405 C6.38529172,15.5960704 6.41262362,15.6096107 6.45493798,15.6265186 L6.62398088,15.6865029 L6.62398088,15.6865029 L7.00872375,15.8033064 L7.00872375,15.8033064 L7.49962494,15.9371352 L7.49962494,15.9371352 L7.85739372,16.0273868 L7.85739372,16.0273868 L8.21963069,16.1125661 L8.21963069,16.1125661 L8.56925055,16.1876172 L8.56925055,16.1876172 L8.88916799,16.2474846 C9.08874873,16.2812115 9.25713765,16.3014454 9.37155434,16.3014454 C9.79108219,16.3014454 10.0535727,16.2052243 10.1590259,16.012782 C9.31702859,15.4639787 8.55333977,15.1108352 7.86795948,14.9533514 C7.46883426,14.861642 7.1334606,14.7966358 6.86183849,14.7583326 L6.70651541,14.738555 L6.56648789,14.7252489 Z M25.3572439,14.7252489 L25.2172164,14.738555 C25.0203192,14.7606526 24.782621,14.7998401 24.5041219,14.8561176 L24.0557723,14.9533514 L24.0557723,14.9533514 C23.3703921,15.1108352 22.6067032,15.4639787 21.7647059,16.012782 C21.8701591,16.2052243 22.1326496,16.3014454 22.5521775,16.3014454 C22.6665942,16.3014454 22.8349831,16.2812115 23.0345638,16.2474846 L23.3544813,16.1876172 L23.3544813,16.1876172 L23.7041011,16.1125661 L23.7041011,16.1125661 L24.0663381,16.0273868 L24.0663381,16.0273868 L24.4241069,15.9371352 L24.4241069,15.9371352 L24.9150081,15.8033064 L24.9150081,15.8033064 L25.1868581,15.7224924 L25.1868581,15.7224924 L25.3944414,15.654301 C25.4793188,15.6242035 25.5336892,15.6007354 25.547942,15.5867405 C25.5935384,15.541969 25.6092982,15.4023739 25.5952214,15.167955 L25.571199,14.9019283 L25.571199,14.9019283 C25.5590046,14.7950776 25.4644726,14.7170152 25.3572439,14.7252489 Z M16.0278427,9.72845506 C14.4824673,9.72845506 12.9079047,9.77640034 11.3041549,9.87229091 C10.4290832,9.9246272 9.65845628,10.4520801 9.2894153,11.2371067 L9.22104962,11.3974818 L8.93696646,12.1374964 C8.91501101,12.1946886 8.90375283,12.2554287 8.90375283,12.3166904 C8.90375283,12.5621502 9.08062799,12.7662987 9.3138772,12.8086347 L9.40375283,12.8166904 L22.7535332,12.8166904 C22.8247854,12.8166904 22.8952146,12.8014617 22.9601017,12.7720248 C23.1836344,12.6706163 23.2964724,12.4252003 23.2386626,12.1952969 L23.2088677,12.1101219 L22.8573883,11.3353635 C22.4746328,10.4916636 21.6566788,9.92881453 20.7319132,9.87277956 C19.1438644,9.77656322 17.5758409,9.72845506 16.0278427,9.72845506 Z"
     id="path2"
     style="fill:#ffffff" />
</svg>
