<svg xmlns="http://www.w3.org/2000/svg" xmlns:xlink="http://www.w3.org/1999/xlink" width="16" height="11" viewBox="0 0 16 11">
    <defs>
        <path id="a" d="M14 1.318a5.5 5.5 0 0 1-1.424 1.432v.344c0 2.005-.746 3.824-2.24 5.457C8.845 10.184 6.863 11 4.39 11A8.127 8.127 0 0 1 0 9.74c.316.038.544.057.682.057a5.705 5.705 0 0 0 3.56-1.203 2.953 2.953 0 0 1-1.661-.559 2.63 2.63 0 0 1-1.009-1.36c.237.038.415.057.534.057.198 0 .455-.038.771-.115a2.919 2.919 0 0 1-1.646-.96 2.587 2.587 0 0 1-.667-1.761v-.029c.435.23.87.344 1.305.344C1.019 3.676.593 2.903.593 1.89c0-.478.129-.936.386-1.375C2.5 2.33 4.469 3.294 6.88 3.409c-.04-.134-.059-.344-.059-.63 0-.783.277-1.442.83-1.977C8.207.267 8.889 0 9.7 0c.81 0 1.503.296 2.076.888.594-.095 1.207-.325 1.84-.687-.198.668-.623 1.184-1.276 1.546A5.035 5.035 0 0 0 14 1.317z"/>
    </defs>
    <g fill="none" fill-rule="evenodd" transform="translate(1)">
        <mask id="b" fill="#fff">
            <use xlink:href="#a"/>
        </mask>
        <use fill="#FFF" xlink:href="#a"/>
        <path fill="#999" d="M-2-4h19v19H-2z" mask="url(#b)"/>
    </g>
</svg>
